<svg xmlns="http://www.w3.org/2000/svg" viewBox="0 0 448 512" width="40" height="40">
  <path fill="#F05032" d="M439.55 236.05L244 40.45a28.87 28.87 0 0 0-40.81 0l-40.66 40.63 51.52 51.52c27.06-9.14 52.68 16.77 41.39 41.38l49.66 49.66c34.23-11.8 61.18 31 35.47 56.69-26.49 26.49-70.21-2.87-56.69-35.47l-49.66-49.66c-31.75 30.15-82.14 12.33-82.14-35.34 0-17.4 6.66-33.81 18.75-45.9L188.8 75.6c-9.42-9.42-24.65-9.32-34.04 0L75.6 188.8c-9.42 9.42-9.32 24.65 0 34.04l49.71 49.71c-12.09 12.09-18.75 28.5-18.75 45.9 0 47.67 50.39 65.49 82.14 35.34l49.66 49.66c13.52 32.62-30.2 61.98-56.69 35.47-25.71-25.69-1.27-68.49 35.47-56.69l49.66-49.66c24.61 24.61 50.52-14.32 41.39-41.38l51.52-51.52 40.66 40.63a28.87 28.87 0 0 0 40.81 0l195.55-195.6a28.87 28.87 0 0 0 0-40.81z"/>
</svg>
