<svg xmlns="http://www.w3.org/2000/svg" viewBox="0 0 448 512" width="40" height="40">
  <path fill="#339933" d="M224 508c-6.7 0-13.5-1.8-19.4-5.2l-61.7-36.5c-3.5-2.1-5.6-6-5.6-10.2V155.9c0-4.2 2.1-8.1 5.6-10.2l61.7-36.5c5.9-3.4 12.7-5.2 19.4-5.2s13.5 1.8 19.4 5.2l61.7 36.5c3.5 2.1 5.6 6 5.6 10.2v300.2c0 4.2-2.1 8.1-5.6 10.2l-61.7 36.5c-5.9 3.4-12.7 5.2-19.4 5.2zm-61.7-36.5l61.7 36.5c3.5 2.1 7.4 2.1 10.9 0l61.7-36.5V155.9l-61.7-36.5c-3.5-2.1-7.4-2.1-10.9 0l-61.7 36.5v300.2z"/>
  <path fill="#339933" d="M224 268c-35.3 0-64-28.7-64-64s28.7-64 64-64 64 28.7 64 64-28.7 64-64 64zm0-96c-17.7 0-32 14.3-32 32s14.3 32 32 32 32-14.3 32-32-14.3-32-32-32z"/>
</svg>
